HIERARCHY
ROOT Hips
{
	OFFSET 0.000000 0.000000 0.000000 
	CHANNELS 6 Xposition Yposition Zposition Zrotation Yrotation Xrotation
	JOINT LeftUpLeg
	{
		OFFSET 1.363060 -1.794630 0.839290 
		CHANNELS 3 Zrotation Yrotation Xrotation
		JOINT LeftLeg
		{
			OFFSET 2.448110 -6.726130 0.000000 
			CHANNELS 3 Zrotation Yrotation Xrotation
			JOINT LeftFoot
			{
				OFFSET 2.562200 -7.039590 0.000000 
				CHANNELS 3 Zrotation Yrotation Xrotation
				JOINT LeftToeBase
				{
					OFFSET 0.157640 -0.433110 2.322550 
					CHANNELS 3 Zrotation Yrotation Xrotation
					End Site
					{
						OFFSET 0.000000 0.000000 0.000000 
					}
				}
			}
		}
	}
	JOINT RightUpLeg
	{
		OFFSET -1.305520 -1.794630 0.839290 
		CHANNELS 3 Zrotation Yrotation Xrotation
		JOINT RightLeg
		{
			OFFSET -2.542530 -6.985550 0.000000 
			CHANNELS 3 Zrotation Yrotation Xrotation
			JOINT RightFoot
			{
				OFFSET -2.568260 -7.056230 0.000000 
				CHANNELS 3 Zrotation Yrotation Xrotation
				JOINT RightToeBase
				{
					OFFSET -0.164730 -0.452590 2.363150 
					CHANNELS 3 Zrotation Yrotation Xrotation
					End Site
					{
						OFFSET 0.000000 0.000000 0.000000 
					}
				}
			}
		}
	}
	JOINT Spine
	{
		OFFSET 0.028270 2.035590 -0.193380 
		CHANNELS 3 Zrotation Yrotation Xrotation
		JOINT Spine1
		{
			OFFSET 0.056720 2.048850 -0.042750 
			CHANNELS 3 Zrotation Yrotation Xrotation
			JOINT Neck1
			{
				OFFSET -0.054170 1.746240 0.172020 
				CHANNELS 3 Zrotation Yrotation Xrotation
				JOINT Head
				{
					OFFSET 0.104070 1.761360 -0.123970 
					CHANNELS 3 Zrotation Yrotation Xrotation
					End Site
					{
						OFFSET 0.000000 0.000000 0.000000 
					}
				}
			}
			JOINT LeftArm
			{
				OFFSET 3.362410 1.200890 -0.311210 
				CHANNELS 3 Zrotation Yrotation Xrotation
				JOINT LeftForeArm
				{
					OFFSET 4.983000 -0.000000 -0.000000 
					CHANNELS 3 Zrotation Yrotation Xrotation
					JOINT LeftHand
					{
						OFFSET 3.483560 -0.000000 -0.000000 
						CHANNELS 3 Zrotation Yrotation Xrotation
						JOINT LeftHandIndex1
						{
							OFFSET 0.715260 -0.000000 -0.000000 
							CHANNELS 3 Zrotation Yrotation Xrotation
							End Site
							{
								OFFSET 0.000000 0.000000 0.000000 
							}
						}
					}
				}
			}
			JOINT RightArm
			{
				OFFSET -3.136600 1.374050 -0.404650 
				CHANNELS 3 Zrotation Yrotation Xrotation
				JOINT RightForeArm
				{
					OFFSET -5.241900 -0.000000 -0.000000 
					CHANNELS 3 Zrotation Yrotation Xrotation
					JOINT RightHand
					{
						OFFSET -3.444170 -0.000000 -0.000000 
						CHANNELS 3 Zrotation Yrotation Xrotation
						JOINT RightHandIndex1
						{
							OFFSET -0.622530 -0.000000 -0.000000 
							CHANNELS 3 Zrotation Yrotation Xrotation
							End Site
							{
								OFFSET 0.000000 0.000000 0.000000 
							}
						}
					}
				}
			}
		}
	}
}
MOTION
Frames: 13
Frame Time: 0.041667
0.725219 17.714685 -28.202189 -1.209439 2.023835 -1.103474 -18.756502 -4.209326 -7.825082 10.123551 16.680405 60.122454 2.889665 -1.495637 34.926862 0.000100 -0.047800 -0.131300 28.344170 10.465500 -16.297497 -2.173953 -9.387582 28.647278 0.613408 -4.560175 3.978791 -0.019300 -0.897100 2.465800 1.665461 -1.205860 -1.272995 5.670200 -0.374909 -2.606147 2.108397 -1.183406 14.105305 2.233400 -1.165900 8.887300 -80.529001 -4.048659 27.186869 15.862782 -27.956745 -5.204064 -0.723545 -3.498768 0.895901 -7.125000 0.000000 0.000000 82.246346 -10.905463 -1.887098 -9.612579 15.068164 -1.664359 0.779844 -0.799174 19.399422 7.125000 0.000000 0.000000 
0.724811 17.736736 -27.966371 -1.400790 1.679155 -1.140262 -18.543272 -4.205962 -9.524896 10.436031 16.925680 61.406236 2.368966 -2.172595 31.007860 0.010400 -0.658100 -1.808500 28.775169 10.072494 -15.174722 -2.103604 -9.191387 28.193317 0.595475 -4.419877 4.016608 -0.007100 0.542200 -1.490000 1.687495 -1.045475 -1.346499 5.576384 -0.266679 -2.879841 2.017493 -1.155138 14.152419 2.182600 -1.160100 8.789000 -80.718123 -3.452873 26.809455 15.610279 -27.604786 -5.010948 -0.743686 -3.619206 2.493934 -7.125000 0.000000 0.000000 82.007997 -10.786264 -0.917628 -9.790410 15.350626 -1.739025 0.754649 -0.692957 18.575689 7.125000 0.000000 0.000000 
0.727363 17.759399 -27.734125 -1.710699 0.994811 -1.234627 -18.224542 -3.843067 -11.174520 10.657669 17.114504 62.362572 1.892233 -2.953141 26.494291 0.186400 -2.780800 -7.668900 29.354105 9.908269 -13.937905 -2.041706 -9.011410 27.800893 0.555238 -4.132727 3.650934 -0.019800 0.908000 -2.495800 1.707406 -0.749423 -1.367551 5.405037 -0.103324 -3.040332 2.052152 -1.027985 14.222568 2.213200 -1.102600 8.747100 -80.870281 -3.033274 26.395226 15.325191 -27.205736 -4.819354 -0.757730 -3.668922 3.787824 -7.125000 0.000000 0.000000 81.772509 -10.304716 -0.779116 -9.734513 15.257623 -1.715184 0.762163 -0.830348 19.168131 7.125000 0.000000 0.000000 
0.738082 17.788085 -27.504737 -1.847256 0.074717 -1.250419 -18.173729 -3.420568 -12.919383 10.854702 17.281884 63.084154 1.515947 -3.097148 22.419903 0.430100 -4.208700 -11.664600 29.672802 9.737982 -12.832983 -1.975085 -8.839361 27.425692 0.435616 -3.453911 2.915096 -0.001400 0.240700 -0.661200 1.692491 -0.312300 -1.343776 5.196518 0.124456 -3.015227 2.037141 -0.981632 14.362977 2.213700 -1.087700 8.777700 -81.106153 -2.542009 26.178813 15.133656 -26.951852 -4.720152 -0.794468 -3.603707 4.044678 -7.125000 0.000000 0.000000 81.554413 -9.499687 -0.917643 -9.561733 14.970818 -1.642856 0.772551 -1.081247 20.164123 7.125000 0.000000 0.000000 
0.735326 17.809523 -27.260752 -1.892315 -0.079136 -1.207671 -18.098531 -3.659231 -14.406301 10.953117 17.402889 63.431730 1.370404 -3.065225 20.644267 0.402500 -4.073000 -11.282300 29.875478 9.324657 -11.831131 -1.928077 -8.696395 27.118299 0.407480 -3.229379 1.741535 -0.006300 -0.512800 1.409100 1.677895 -0.251219 -1.305685 5.075617 0.163021 -2.770957 2.024669 -0.972699 14.399090 2.189700 -1.075900 8.759300 -81.180316 -2.119625 26.290301 14.835102 -26.577299 -4.572077 -0.836173 -3.524264 3.491713 -7.125000 0.000000 0.000000 81.451255 -8.725459 0.257761 -9.759154 15.238505 -1.715461 0.780285 -0.926495 19.215054 7.125000 0.000000 0.000000 
0.722259 17.826266 -27.005537 -1.966942 0.313107 -1.220439 -17.913918 -4.255264 -15.619415 10.989802 17.489855 63.569474 1.265806 -2.981702 19.330874 0.164100 -2.609700 -7.194000 30.139898 8.737358 -10.811894 -1.903043 -8.582890 26.900887 0.436593 -3.319320 0.541474 -0.005700 -0.488800 1.343200 1.677822 -0.402926 -1.296182 5.027007 0.099494 -2.581459 2.033304 -1.106975 14.400333 2.173600 -1.133200 8.717900 -81.199867 -1.666020 26.310892 14.500592 -26.144955 -4.386481 -0.877044 -3.504247 3.610607 -7.125000 0.000000 0.000000 81.418623 -8.126858 2.037415 -10.177612 15.842636 -1.872790 0.801006 -0.613892 17.234907 7.125000 0.000000 0.000000 
0.715929 17.827695 -26.770739 -2.026517 0.236452 -1.244164 -17.799683 -4.489347 -16.981600 11.008155 17.571111 63.679335 1.114953 -3.148539 16.575962 0.254700 -3.246800 -8.966800 30.400548 8.502049 -9.754406 -1.876940 -8.469280 26.667020 0.494357 -3.555848 0.155066 -0.001300 0.229200 -0.629800 1.681455 -0.256906 -1.307681 5.022689 0.186652 -2.616724 2.074469 -1.139481 14.633212 2.186200 -1.154200 8.865100 -81.291617 -1.193896 26.413082 14.146715 -25.672435 -4.228511 -0.913372 -3.343194 3.678588 -7.125000 0.000000 0.000000 81.357470 -7.584170 3.474543 -10.562613 16.386684 -2.013545 0.847631 -0.440515 15.896258 7.125000 0.000000 0.000000 
0.709906 17.828103 -26.550335 -2.152137 0.109343 -1.125485 -17.603057 -4.757516 -18.639654 11.018779 17.661447 63.682623 0.939072 -2.578825 14.549709 0.344600 -3.772100 -10.436400 30.742420 8.434686 -8.871499 -1.845614 -8.355058 26.406418 0.586212 -3.951593 -0.085401 -0.006600 0.524300 -1.440800 1.693343 -0.056986 -1.311345 5.011617 0.296762 -2.611899 2.126328 -1.219411 14.880764 2.203900 -1.198600 9.068600 -81.420128 -0.881272 26.852871 14.032909 -25.501024 -4.140207 -0.886944 -3.443237 3.966850 -7.125000 0.000000 0.000000 81.220167 -7.058824 4.321345 -10.863389 16.854991 -2.140383 0.834675 -0.519278 14.752431 7.125000 0.000000 0.000000 
0.709294 17.834943 -26.325235 -2.376225 -0.154638 -0.979003 -17.316904 -4.945431 -20.342720 10.995059 17.736842 63.543128 0.750920 -1.633265 13.292061 0.288600 -3.454600 -9.547000 31.143107 8.408728 -8.036165 -1.819546 -8.260621 26.221927 0.565385 -3.863647 -1.081092 -0.009000 -0.613100 1.684800 1.695611 0.073986 -1.350537 4.842355 0.380973 -2.712575 2.114678 -1.276387 14.779727 2.200300 -1.224900 8.982700 -81.422946 -0.292122 27.302618 13.995883 -25.459600 -4.095126 -0.825510 -3.576108 4.089231 -7.125000 0.000000 0.000000 81.063371 -6.609087 5.764467 -11.164184 17.295325 -2.259064 0.889643 -0.479918 13.325633 7.125000 0.000000 0.000000 
0.712561 17.829226 -26.096052 -2.478970 -0.690756 -0.807295 -17.202296 -4.956850 -21.996039 10.909159 17.780751 63.248579 0.590928 -0.981364 11.735101 0.220500 -3.023000 -8.342700 31.358236 8.438461 -7.196268 -1.796515 -8.172493 26.044910 0.550988 -3.785564 -1.332720 -0.001900 0.282600 -0.776500 1.653991 0.337304 -1.406208 4.583518 0.532456 -2.847578 2.047960 -1.329295 14.712291 2.134100 -1.239500 8.937500 -81.308576 0.347287 27.494253 13.716177 -25.101953 -3.989089 -0.809129 -3.436169 3.738659 -7.125000 0.000000 0.000000 80.963218 -6.135360 6.408988 -11.309662 17.516587 -2.321504 0.898935 -0.604860 12.757899 7.125000 0.000000 0.000000 
0.709498 17.810646 -25.877077 -2.603277 -0.885647 -0.536743 -17.003064 -5.247991 -23.708721 10.765660 17.809906 62.787184 0.440544 -0.363554 10.208542 0.129700 -2.321000 -6.393600 31.621702 8.413892 -6.458004 -1.770998 -8.082393 25.850729 0.572081 -3.888192 -1.816861 -0.014000 0.765200 -2.102900 1.642607 0.489164 -1.411375 4.426837 0.616930 -2.747406 2.094801 -1.335123 14.825110 2.145800 -1.238500 9.081900 -81.260939 0.553424 27.902672 13.382214 -24.642106 -3.850762 -0.862463 -3.259180 3.165888 -7.125000 0.000000 0.000000 80.862339 -5.601294 7.860856 -11.750741 18.181994 -2.512505 0.923344 -0.616887 11.568034 7.125000 0.000000 0.000000 
0.709600 17.791863 -25.661268 -2.954228 -1.048451 -0.480394 -16.542344 -5.518299 -25.121505 10.562872 17.796436 62.107228 0.253813 0.547772 9.086111 0.039300 -1.278800 -3.516300 32.180962 8.306241 -5.505001 -1.752687 -7.993415 25.683436 0.608014 -4.077697 -2.539502 -0.009900 0.643200 -1.767700 1.668052 0.620668 -1.435911 4.257171 0.695969 -2.894332 2.206686 -1.265000 15.031822 2.218100 -1.211100 9.205800 -81.300262 1.092451 28.488975 13.151901 -24.341025 -3.783564 -1.060483 -2.936320 2.259284 -7.125000 0.000000 0.000000 80.735195 -5.103672 9.170670 -12.201240 18.865430 -2.722977 0.897623 -0.657409 10.404488 7.125000 0.000000 0.000000 
0.716644 17.780021 -25.430859 -3.243456 -1.462986 -0.574545 -16.216753 -5.580079 -26.142706 10.266812 17.710185 61.118085 0.023701 1.671342 8.055211 0.001600 -0.254700 -0.699700 32.648595 8.120086 -4.396652 -1.727327 -7.887214 25.469433 0.641942 -4.263067 -3.215042 -0.006300 0.513700 -1.411600 1.652273 0.837369 -1.453705 3.944420 0.816993 -3.109277 2.206586 -1.320054 14.905864 2.208400 -1.229200 9.098300 -81.240226 1.858417 29.026085 13.050212 -24.176254 -3.646676 -0.852635 -3.379979 1.897013 -7.125000 0.000000 0.000000 80.659642 -4.758094 10.246409 -12.565585 19.444512 -2.907185 0.849795 -0.837866 9.580752 7.125000 0.000000 0.000000 
